<?xml version="1.0" encoding="UTF-8"?>
<svg xmlns="http://www.w3.org/2000/svg" style="display:none">
  <symbol id="icon-home" viewBox="0 0 24 24">
    <path d="M3 10.5L12 4l9 6.5" stroke="#cfeefb" stroke-width="1.6" stroke-linecap="round" stroke-linejoin="round" fill="none"/>
    <path d="M5 21V11h14v10" stroke="#cfeefb" stroke-width="1.6" stroke-linecap="round" stroke-linejoin="round" fill="none"/>
  </symbol>

  <symbol id="icon-printer" viewBox="0 0 24 24">
    <rect x="4" y="7" width="16" height="10" rx="2" stroke="#cfeefb" stroke-width="1.6" fill="none"/>
    <path d="M6 14v4h12v-4" stroke="#cfeefb" stroke-width="1.6" fill="none" stroke-linecap="round" stroke-linejoin="round"/>
    <rect x="8" y="3" width="8" height="4" rx="1" stroke="#cfeefb" stroke-width="1.6" fill="none"/>
  </symbol>

  <symbol id="icon-joystick" viewBox="0 0 24 24">
    <circle cx="12" cy="8" r="2" stroke="#cfeefb" stroke-width="1.6" fill="none"/>
    <path d="M12 10v6" stroke="#cfeefb" stroke-width="1.6" stroke-linecap="round" stroke-linejoin="round" fill="none"/>
    <path d="M9 21h6" stroke="#cfeefb" stroke-width="1.6" stroke-linecap="round" stroke-linejoin="round" fill="none"/>
    <path d="M7 14a3 3 0 0 1 6 0" stroke="#cfeefb" stroke-width="1.6" stroke-linecap="round" stroke-linejoin="round" fill="none"/>
  </symbol>

  <symbol id="icon-book" viewBox="0 0 24 24">
    <path d="M4 19.5A2.5 2.5 0 0 1 6.5 17H20" stroke="#cfeefb" stroke-width="1.6" fill="none" stroke-linecap="round" stroke-linejoin="round"/>
    <path d="M20 6v14" stroke="#cfeefb" stroke-width="1.6" fill="none" stroke-linecap="round" stroke-linejoin="round"/>
    <path d="M4 6v12" stroke="#cfeefb" stroke-width="1.6" fill="none" stroke-linecap="round" stroke-linejoin="round"/>
    <path d="M8 6v12" stroke="#cfeefb" stroke-width="1.6" fill="none" stroke-linecap="round" stroke-linejoin="round"/>
  </symbol>

  <symbol id="icon-chat" viewBox="0 0 24 24">
    <path d="M21 15a2 2 0 0 1-2 2H8l-5 4V5a2 2 0 0 1 2-2h14a2 2 0 0 1 2 2z" stroke="#cfeefb" stroke-width="1.6" fill="none" stroke-linecap="round" stroke-linejoin="round"/>
  </symbol>

  <symbol id="icon-image" viewBox="0 0 24 24">
    <rect x="3" y="4" width="18" height="16" rx="2" stroke="#cfeefb" stroke-width="1.6" fill="none" stroke-linecap="round" stroke-linejoin="round"/>
    <path d="M21 15l-5-5-6 6-3-3-3 3" stroke="#cfeefb" stroke-width="1.6" fill="none" stroke-linecap="round" stroke-linejoin="round"/>
  </symbol>

  <symbol id="icon-search" viewBox="0 0 24 24">
    <circle cx="11" cy="11" r="5" stroke="#cfeefb" stroke-width="1.6" fill="none"/>
    <path d="M21 21l-4.35-4.35" stroke="#cfeefb" stroke-width="1.6" fill="none" stroke-linecap="round"/>
  </symbol>

  <symbol id="icon-app" viewBox="0 0 24 24">
    <rect x="4" y="4" width="7" height="7" rx="1.2" stroke="#cfeefb" stroke-width="1.6" fill="none"/>
    <rect x="13" y="4" width="7" height="7" rx="1.2" stroke="#cfeefb" stroke-width="1.6" fill="none"/>
    <rect x="4" y="13" width="7" height="7" rx="1.2" stroke="#cfeefb" stroke-width="1.6" fill="none"/>
    <rect x="13" y="13" width="7" height="7" rx="1.2" stroke="#cfeefb" stroke-width="1.6" fill="none"/>
  </symbol>

  <symbol id="icon-music" viewBox="0 0 24 24">
    <path d="M9 17V5l10-2v12" stroke="#cfeefb" stroke-width="1.6" fill="none" stroke-linecap="round" stroke-linejoin="round"/>
    <circle cx="7" cy="17" r="2" stroke="#cfeefb" stroke-width="1.6" fill="none"/>
    <circle cx="17" cy="15" r="2" stroke="#cfeefb" stroke-width="1.6" fill="none"/>
  </symbol>

  <symbol id="icon-browser" viewBox="0 0 24 24">
    <rect x="3" y="4" width="18" height="16" rx="2" stroke="#cfeefb" stroke-width="1.6" fill="none" stroke-linecap="round" stroke-linejoin="round"/>
    <path d="M3 10h18" stroke="#cfeefb" stroke-width="1.6" fill="none" stroke-linecap="round" stroke-linejoin="round"/>
  </symbol>

  <symbol id="icon-video" viewBox="0 0 24 24">
    <rect x="2" y="6" width="14" height="12" rx="2" stroke="#cfeefb" stroke-width="1.6" fill="none" stroke-linecap="round" stroke-linejoin="round"/>
    <path d="M22 8v8l-6-4z" stroke="#cfeefb" stroke-width="1.6" fill="none" stroke-linecap="round" stroke-linejoin="round"/>
  </symbol>
</svg>
